Coordinates
version=1
nRows=23
nColumns=30
inDegrees=yes

Units are S.I. units (second, meters, Newtons, ...)
Angles are in degrees.

endheader
time	floatyaw	floatroll	floatpitch	floatx	floaty	floatz	pro_sup_l	deviation_l	flexion_l	cmc_flexion_l	cmc_abduction_l	mp_flexion_l	ip_flexion_l	2mcp_flexion_l	2mcp_abduction_l	2pm_flexion_l	2md_flexion_l	3mcp_flexion_l	3mcp_abduction_l	3pm_flexion_l	3md_flexion_l	4mcp_flexion_l	4mcp_abduction_l	4pm_flexion_l	4md_flexion_l	5mcp_flexion_l	5mcp_abduction_l	5pm_flexion_l	5md_flexion_l
-0.995000	-160.147433	-5.066637	-73.570646	0.082107	-0.182081	-0.016353	101.453399	5.608624	-0.549774	14.324165	11.256219	-25.691863	-41.911191	29.637087	6.682517	43.676994	29.684192	24.846241	4.190619	44.415250	29.403107	13.775509	-4.102593	51.819752	35.943564	1.066936	-8.537040	61.521946	43.248783
-0.985000	-160.147433	-5.066637	-73.570646	0.082111	-0.182081	-0.016363	101.460796	5.608330	-0.552926	14.305737	11.266761	-25.708049	-41.899150	29.624751	6.686615	43.666367	29.689171	24.837857	4.191563	44.423567	29.413230	13.768409	-4.105502	51.831653	35.955233	1.076953	-8.539915	61.517016	43.250686
-0.975000	-160.147433	-5.066637	-73.570646	0.082113	-0.182082	-0.016376	101.466007	5.605667	-0.554029	14.287865	11.265040	-25.728808	-41.883163	29.605129	6.688380	43.669548	29.707334	24.829775	4.191078	44.425808	29.421047	13.754554	-4.107918	51.848006	35.968048	1.073063	-8.543859	61.523785	43.260613
-0.965000	-160.147433	-5.066637	-73.570646	0.082113	-0.182082	-0.016390	101.468799	5.600379	-0.551290	14.270524	11.258638	-25.749760	-41.869082	29.584128	6.688309	43.681497	29.731620	24.821244	4.190364	44.421670	29.425326	13.735218	-4.109400	51.867295	35.979472	1.055404	-8.549011	61.543992	43.277966
-0.955000	-160.147433	-5.066637	-73.570646	0.082113	-0.182077	-0.016403	101.469477	5.593272	-0.543506	14.252715	11.256821	-25.765588	-41.859175	29.566966	6.687088	43.693026	29.753032	24.810660	4.190763	44.411905	29.425747	13.712980	-4.109429	51.885064	35.986596	1.026994	-8.554973	61.575134	43.300273
-0.945000	-160.147433	-5.066637	-73.570646	0.082113	-0.182067	-0.016415	101.468652	5.585697	-0.531037	14.232698	11.266313	-25.772612	-41.853154	29.557288	6.685172	43.694744	29.763858	24.797362	4.193288	44.397385	29.422415	13.691556	-4.107957	51.896470	35.987574	0.993364	-8.560905	61.610500	43.323302
-0.935000	-160.147433	-5.066637	-73.570646	0.082114	-0.182053	-0.016424	101.467157	5.578934	-0.516010	14.208773	11.288136	-25.770432	-41.850373	29.556840	6.682688	43.681337	29.760510	24.782762	4.198173	44.379059	29.415799	13.675006	-4.105653	51.899149	35.982509	0.961410	-8.565949	61.641294	43.342053
-0.925000	-160.147433	-5.066637	-73.570646	0.082115	-0.182037	-0.016431	101.465996	5.573796	-0.501601	14.180075	11.317444	-25.761423	-41.851046	29.565630	6.679686	43.653717	29.744471	24.770221	4.204656	44.358406	29.406888	13.666632	-4.103610	51.894200	35.973192	0.937524	-8.569689	61.660113	43.352489
-0.915000	-160.147433	-5.066637	-73.570646	0.082113	-0.182022	-0.016438	101.466101	5.570563	-0.490784	14.146854	11.346602	-25.748649	-41.855629	29.582362	6.676472	43.618082	29.721005	24.763794	4.211203	44.337557	29.397128	13.668029	-4.102715	51.884823	35.962010	0.925675	-8.572341	61.663949	43.353145
-0.905000	-160.147433	-5.066637	-73.570646	0.082110	-0.182010	-0.016445	101.467939	5.569139	-0.485182	14.110216	11.369641	-25.733870	-41.863101	29.604878	6.673698	43.582901	29.696580	24.766388	4.216113	44.318819	29.388039	13.678544	-4.103206	51.874093	35.950906	0.926304	-8.574497	61.655126	43.345686
-0.895000	-160.147433	-5.066637	-73.570646	0.082104	-0.182000	-0.016451	101.471235	5.569248	-0.484569	14.071757	11.385227	-25.717018	-41.869851	29.630534	6.672115	43.555579	29.676392	24.778155	4.218236	44.304022	29.380836	13.695349	-4.104701	51.863596	35.941038	0.936394	-8.576633	61.640061	43.334217
-0.885000	-160.147433	-5.066637	-73.570646	0.082098	-0.181993	-0.016456	101.475114	5.570554	-0.487258	14.033397	11.396354	-25.697257	-41.870550	29.656587	6.672166	43.540151	29.662938	24.795944	4.217425	44.294282	29.376302	13.714278	-4.106572	51.853496	35.933019	0.950551	-8.578799	61.626844	43.323843
-0.875000	-160.147433	-5.066637	-73.570646	0.082093	-0.181989	-0.016458	101.478574	5.572699	-0.491123	13.997282	11.407464	-25.674663	-41.860910	29.680650	6.673754	43.536654	29.655914	24.814243	4.214509	44.290397	29.374984	13.731265	-4.108306	51.843383	35.927171	0.962688	-8.580767	61.622740	43.319068
-0.865000	-160.147433	-5.066637	-73.570646	0.082090	-0.181987	-0.016458	101.480969	5.575300	-0.494574	13.965488	11.421391	-25.651309	-41.840570	29.700986	6.676345	43.542072	29.653224	24.827152	4.210838	44.293563	29.377565	13.743706	-4.109634	51.833110	35.923578	0.967839	-8.582459	61.632222	43.322466
-0.855000	-160.147433	-5.066637	-73.570646	0.082088	-0.181989	-0.016457	101.482242	5.578030	-0.496831	13.939614	11.438072	-25.631096	-41.813964	29.716478	6.679383	43.552091	29.652511	24.830361	4.207685	44.305677	29.385067	13.750872	-4.110452	51.823320	35.922115	0.963538	-8.584202	61.655852	43.333947
-0.845000	-160.147433	-5.066637	-73.570646	0.082086	-0.181993	-0.016456	101.482988	5.580797	-0.497471	13.920576	11.455150	-25.618492	-41.788394	29.726381	6.682727	43.562725	29.652377	24.822237	4.205819	44.328598	29.398573	13.753175	-4.110695	51.815644	35.922657	0.950364	-8.586562	61.690276	43.350867
-0.835000	-160.147433	-5.066637	-73.570646	0.082084	-0.181997	-0.016455	101.484419	5.583921	-0.495903	13.908650	11.469358	-25.616891	-41.770412	29.730205	6.686755	43.571391	29.652898	24.803802	4.205426	44.362662	29.418509	13.750991	-4.110303	51.812510	35.925365	0.931592	-8.589998	61.729394	43.368962
-0.825000	-160.147433	-5.066637	-73.570646	0.082082	-0.181997	-0.016454	101.488063	5.588027	-0.491348	13.903459	11.477898	-25.627340	-41.762534	29.727873	6.691994	43.577565	29.655525	24.777919	4.206287	44.405553	29.444030	13.744010	-4.109288	51.816422	35.930708	0.912128	-8.594688	61.766372	43.383861
-0.815000	-160.147433	-5.066637	-73.570646	0.082080	-0.181992	-0.016452	101.495006	5.593583	-0.483273	13.903704	11.479696	-25.648060	-41.761975	29.719941	6.698485	43.582929	29.662592	24.748121	4.208030	44.452482	29.473040	13.731462	-4.107794	51.828775	35.939127	0.896882	-8.600579	61.795753	43.392632
-0.805000	-160.147433	-5.066637	-73.570646	0.082080	-0.181982	-0.016447	101.504952	5.600337	-0.471760	13.906869	11.476269	-25.674888	-41.761942	29.707577	6.705350	43.590540	29.676406	24.717519	4.210292	44.497516	29.502767	13.712827	-4.106035	51.848746	35.950540	0.888897	-8.607459	61.814847	43.394760
-0.795000	-160.147433	-5.066637	-73.570646	0.082084	-0.181967	-0.016441	101.515894	5.607120	-0.457466	13.909332	11.471304	-25.702475	-41.754767	29.692357	6.710977	43.603046	29.697982	24.688185	4.212798	44.535101	29.530368	13.688495	-4.104129	51.873015	35.964051	0.888013	-8.614843	61.823903	43.392081
-0.785000	-160.147433	-5.066637	-73.570646	0.082090	-0.181950	-0.016434	101.524947	5.612281	-0.441313	13.907165	11.468518	-25.725850	-41.735477	29.676125	6.713783	43.620813	29.725897	24.661318	4.215384	44.560943	29.553129	13.660099	-4.101965	51.896752	35.978048	0.890965	-8.621760	61.825231	43.387660
-0.775000	-160.147433	-5.066637	-73.570646	0.082099	-0.181934	-0.016429	101.529920	5.614487	-0.424261	13.897366	11.468937	-25.741853	-41.704337	29.661090	6.713117	43.641125	29.755896	24.637983	4.218009	44.572207	29.568392	13.630448	-4.099255	51.915465	35.990643	0.893071	-8.626802	61.822001	43.384252
